<svg width="8" height="14" viewBox="0 0 8 14" fill="none" xmlns="http://www.w3.org/2000/svg">
<path d="M0.488281 6.71191C0.488281 6.61914 0.505371 6.53369 0.539551 6.45557C0.57373 6.37256 0.625 6.29688 0.693359 6.22852L6.50146 0.544922C6.6333 0.417969 6.79199 0.354492 6.97754 0.354492C7.10449 0.354492 7.2168 0.383789 7.31445 0.442383C7.41699 0.500977 7.49756 0.581543 7.55615 0.684082C7.61963 0.781738 7.65137 0.894043 7.65137 1.021C7.65137 1.20166 7.58545 1.36035 7.45361 1.49707L2.12158 6.71191L7.45361 11.9268C7.58545 12.0635 7.65137 12.2222 7.65137 12.4028C7.65137 12.5298 7.61963 12.6421 7.55615 12.7397C7.49756 12.8423 7.41699 12.9229 7.31445 12.9814C7.2168 13.04 7.10449 13.0693 6.97754 13.0693C6.79199 13.0693 6.6333 13.0034 6.50146 12.8716L0.693359 7.19531C0.625 7.12695 0.57373 7.05371 0.539551 6.97559C0.505371 6.89258 0.488281 6.80469 0.488281 6.71191Z" fill="white"/>
</svg>
