<svg width="15" height="16" viewBox="0 0 15 16" fill="none" xmlns="http://www.w3.org/2000/svg">
<path d="M1.68484 12.9873C1.33817 12.9873 1.06717 12.9067 0.871857 12.7456C0.676544 12.5845 0.578888 12.3696 0.578888 12.1011C0.578888 11.8569 0.649689 11.6201 0.79129 11.3906C0.932892 11.1611 1.10867 10.9365 1.31863 10.7168C1.53348 10.4971 1.74588 10.2773 1.95584 10.0576C2.11697 9.8916 2.24149 9.67432 2.32938 9.40576C2.42215 9.13721 2.49051 8.85156 2.53445 8.54883C2.5784 8.24609 2.61014 7.95312 2.62967 7.66992C2.64432 6.73242 2.74442 5.89746 2.92996 5.16504C3.11551 4.43262 3.40604 3.81738 3.80154 3.31934C4.20193 2.82129 4.72684 2.45508 5.37625 2.2207C5.51297 1.74219 5.76443 1.33691 6.13065 1.00488C6.49686 0.672852 6.94852 0.506836 7.48563 0.506836C8.02762 0.506836 8.48172 0.672852 8.84793 1.00488C9.21414 1.33691 9.46561 1.74219 9.60233 2.2207C10.2517 2.45508 10.7742 2.82129 11.1697 3.31934C11.5652 3.81738 11.8557 4.43262 12.0413 5.16504C12.2317 5.89746 12.3343 6.73242 12.3489 7.66992C12.3684 7.95312 12.4002 8.24609 12.4441 8.54883C12.4881 8.85156 12.554 9.13721 12.6419 9.40576C12.7346 9.67432 12.8616 9.8916 13.0227 10.0576C13.2327 10.2773 13.4427 10.4971 13.6526 10.7168C13.8675 10.9365 14.0457 11.1611 14.1873 11.3906C14.3289 11.6201 14.3997 11.8569 14.3997 12.1011C14.3997 12.3696 14.302 12.5845 14.1067 12.7456C13.9114 12.9067 13.6404 12.9873 13.2937 12.9873H1.68484ZM7.48563 15.9243C7.07547 15.9243 6.70682 15.834 6.37967 15.6533C6.05252 15.4727 5.78885 15.2358 5.58865 14.9429C5.38846 14.6499 5.27371 14.3325 5.24442 13.9907H9.73416C9.69998 14.3325 9.58279 14.6499 9.3826 14.9429C9.18729 15.2358 8.92606 15.4727 8.59891 15.6533C8.27176 15.834 7.90067 15.9243 7.48563 15.9243Z" fill="#007AFF"/>
</svg>
