<svg width="18" height="17" viewBox="0 0 18 17" fill="none" xmlns="http://www.w3.org/2000/svg">
<path fill-rule="evenodd" clip-rule="evenodd" d="M1.6249 0.209432C1.32635 -0.0776952 0.85157 -0.0684367 0.564443 0.230111C0.277316 0.528659 0.286574 1.00344 0.585122 1.29057L8.08133 8.50001L0.585143 15.7094C0.286596 15.9966 0.277337 16.4713 0.564464 16.7699C0.851592 17.0684 1.32638 17.0777 1.62492 16.7906L9.16329 9.54058L16.7017 16.7906C17.0002 17.0777 17.475 17.0684 17.7621 16.7699C18.0492 16.4713 18.04 15.9966 17.7414 15.7094L10.2453 8.50001L17.7415 1.29057C18.04 1.00344 18.0493 0.528659 17.7621 0.230111C17.475 -0.0684367 17.0002 -0.0776952 16.7017 0.209432L9.16329 7.45944L1.6249 0.209432Z" fill="white"/>
</svg>
