<svg width="287" height="287" viewBox="0 0 287 287" fill="none" xmlns="http://www.w3.org/2000/svg">
<path d="M143.512 287C222.757 287 286.998 222.759 286.998 143.514C286.998 64.2692 222.757 0.0283203 143.512 0.0283203C64.2669 0.0283203 0.026062 64.2692 0.026062 143.514C0.026062 222.759 64.2669 287 143.512 287Z" fill="#E8DDD2"/>
<path d="M152.386 17.4027C152.386 13.7118 149.395 10.7203 145.704 10.7203C142.013 10.7203 139.021 13.7118 139.021 17.4027C139.021 21.0936 142.013 24.0852 145.704 24.0852C149.395 24.0852 152.386 21.0936 152.386 17.4027Z" fill="#CFC2B7"/>
<path d="M152.386 271.337C152.386 267.646 149.395 264.654 145.704 264.654C142.013 264.654 139.021 267.646 139.021 271.337C139.021 275.027 142.013 278.019 145.704 278.019C149.395 278.019 152.386 275.027 152.386 271.337Z" fill="#CFC2B7"/>
<path d="M17.4004 149.716C21.0911 149.716 24.0829 146.724 24.0829 143.033C24.0829 139.343 21.0911 136.351 17.4004 136.351C13.7098 136.351 10.718 139.343 10.718 143.033C10.718 146.724 13.7098 149.716 17.4004 149.716Z" fill="#CFC2B7"/>
<path d="M271.334 149.716C275.025 149.716 278.017 146.724 278.017 143.033C278.017 139.343 275.025 136.351 271.334 136.351C267.644 136.351 264.652 139.343 264.652 143.033C264.652 146.724 267.644 149.716 271.334 149.716Z" fill="#CFC2B7"/>
<path d="M56.0786 50.8686C54.5549 49.345 52.1225 49.345 50.5989 50.8686C49.0753 52.3922 49.0753 54.8246 50.5989 56.3482C52.1225 57.8718 54.5549 57.8718 56.0786 56.3482C57.6022 54.8246 57.6022 52.3922 56.0786 50.8686Z" fill="#CFC2B7"/>
<path d="M236.398 231.215C234.875 229.691 232.442 229.691 230.919 231.215C229.395 232.739 229.395 235.171 230.919 236.695C232.442 238.218 234.875 238.218 236.398 236.695C237.922 235.171 237.922 232.739 236.398 231.215Z" fill="#CFC2B7"/>
<path d="M27.4141 90.8718C25.4271 90.0382 23.1757 90.959 22.3422 92.9459C21.5086 94.9328 22.4293 97.1843 24.4163 98.0178C26.4032 98.8513 28.6547 97.9306 29.4882 95.9437C30.3217 93.9567 29.401 91.7053 27.4141 90.8718Z" fill="#CFC2B7"/>
<path d="M262.581 189.546C260.594 188.712 258.343 189.633 257.509 191.62C256.675 193.607 257.596 195.858 259.583 196.692C261.57 197.525 263.822 196.605 264.655 194.618C265.489 192.631 264.568 190.379 262.581 189.546Z" fill="#CFC2B7"/>
<path d="M95.4959 25.5836C94.6248 23.6129 92.3562 22.7351 90.3855 23.6063C88.4148 24.4775 87.537 26.746 88.4082 28.7167C89.2794 30.6875 91.5479 31.5652 93.5186 30.694C95.4894 29.8229 96.3671 27.5543 95.4959 25.5836Z" fill="#CFC2B7"/>
<path d="M198.589 258.847C197.718 256.876 195.449 255.999 193.479 256.87C191.508 257.741 190.63 260.009 191.501 261.98C192.373 263.951 194.641 264.829 196.612 263.957C198.583 263.086 199.46 260.818 198.589 258.847Z" fill="#CFC2B7"/>
<path d="M89.079 259.166C88.2196 261.142 89.1109 263.405 91.0868 264.265C93.0627 265.124 95.326 264.233 96.1853 262.257C97.0447 260.281 96.1534 258.018 94.1775 257.158C92.2016 256.299 89.9384 257.19 89.079 259.166Z" fill="#CFC2B7"/>
<path d="M190.812 25.3063C189.953 27.2823 190.844 29.5455 192.82 30.4049C194.796 31.2643 197.059 30.373 197.918 28.3971C198.778 26.4212 197.887 24.1579 195.911 23.2986C193.935 22.4392 191.671 23.3304 190.812 25.3063Z" fill="#CFC2B7"/>
<path d="M24.6842 190.239C22.7023 191.084 21.795 193.341 22.6404 195.323C23.4858 197.305 25.7427 198.212 27.7246 197.367C29.7066 196.521 30.6138 194.265 29.7684 192.283C28.923 190.301 26.6662 189.393 24.6842 190.239Z" fill="#CFC2B7"/>
<path d="M259.272 90.1968C257.29 91.0422 256.383 93.2991 257.229 95.281C258.074 97.263 260.331 98.1702 262.313 97.3248C264.295 96.4794 265.202 94.2225 264.357 92.2406C263.511 90.2587 261.254 89.3514 259.272 90.1968Z" fill="#CFC2B7"/>
<path d="M50.5989 231.215C49.0753 232.739 49.0753 235.171 50.5989 236.695C52.1225 238.218 54.555 238.218 56.0786 236.695C57.6022 235.171 57.6022 232.739 56.0786 231.215C54.555 229.691 52.1225 229.691 50.5989 231.215Z" fill="#CFC2B7"/>
<path d="M230.919 50.8686C229.395 52.3922 229.395 54.8246 230.919 56.3482C232.442 57.8718 234.875 57.8718 236.398 56.3482C237.922 54.8246 237.922 52.3922 236.398 50.8686C234.875 49.345 232.442 49.345 230.919 50.8686Z" fill="#CFC2B7"/>
<path d="M144.423 131.471L69.5237 143.512L144.423 155.53V131.471Z" fill="#CFC2B7"/>
<path d="M144.334 155.53L219.211 143.512L144.334 131.471V155.53Z" fill="#CFC2B7"/>
<path d="M135.901 134.968L91.4356 196.432L152.9 151.967L135.901 134.968Z" fill="#CFC2B7"/>
<path d="M152.834 152.033L197.299 90.5689L135.835 135.035L152.834 152.033Z" fill="#CFC2B7"/>
<path d="M152.9 135.035L91.4356 90.5689L135.901 152.033L152.9 135.035Z" fill="#CFC2B7"/>
<path d="M135.835 151.967L197.299 196.432L152.834 134.968L135.835 151.967Z" fill="#CFC2B7"/>
<path d="M156.397 143.556L144.378 68.6571L132.338 143.556H156.397Z" fill="#CFC2B7"/>
<path d="M132.338 143.468L144.378 218.344L156.397 143.468H132.338Z" fill="#CFC2B7"/>
<path d="M151.527 143.512C151.527 147.452 148.318 150.661 144.378 150.661C140.439 150.661 137.229 147.452 137.229 143.512C137.229 139.572 140.439 136.363 144.378 136.363C148.318 136.363 151.527 139.572 151.527 143.512Z" fill="#CFC2B7"/>
<path d="M153.455 152.789C158.588 147.631 158.561 139.291 153.402 134.159C148.243 129.027 139.903 129.053 134.771 134.212C129.639 139.371 129.666 147.711 134.825 152.843C139.984 157.975 148.323 157.948 153.455 152.789Z" fill="white"/>
<path d="M140.706 49.4664V39.5964H142.316L147.244 45.8824V39.5964H149.26V49.4664H147.664L142.722 43.1664V49.4664H140.706Z" fill="#282828"/>
<path d="M44.051 146.465L40.537 136.595H42.763L45.031 143.343L47.425 136.595H48.993L51.317 143.455L53.669 136.595H55.769L52.227 146.465H50.463L48.153 139.913L45.815 146.465H44.051Z" fill="#282828"/>
<path d="M237.351 146.465V136.595H244.113V138.289H239.423V140.599H243.805V142.307H239.423V144.771H244.113V146.465H237.351Z" fill="#282828"/>
<path d="M145.02 244.371C144.245 244.371 143.512 244.273 142.822 244.077C142.14 243.881 141.571 243.615 141.114 243.279L141.744 241.571C142.182 241.879 142.682 242.122 143.242 242.299C143.811 242.476 144.404 242.565 145.02 242.565C145.692 242.565 146.172 242.462 146.462 242.257C146.76 242.042 146.91 241.776 146.91 241.459C146.91 241.188 146.807 240.974 146.602 240.815C146.396 240.656 146.037 240.521 145.524 240.409L143.942 240.073C142.178 239.7 141.296 238.785 141.296 237.329C141.296 236.704 141.464 236.158 141.8 235.691C142.136 235.215 142.602 234.846 143.2 234.585C143.806 234.324 144.506 234.193 145.3 234.193C145.981 234.193 146.62 234.291 147.218 234.487C147.815 234.683 148.31 234.958 148.702 235.313L148.072 236.909C147.306 236.302 146.378 235.999 145.286 235.999C144.698 235.999 144.24 236.116 143.914 236.349C143.596 236.573 143.438 236.867 143.438 237.231C143.438 237.502 143.536 237.721 143.732 237.889C143.928 238.057 144.268 238.192 144.754 238.295L146.336 238.631C148.146 239.023 149.052 239.91 149.052 241.291C149.052 241.907 148.884 242.448 148.548 242.915C148.221 243.372 147.754 243.732 147.148 243.993C146.55 244.245 145.841 244.371 145.02 244.371Z" fill="#282828"/>
</svg>
