<svg width="19" height="19" viewBox="0 0 19 19" fill="none" xmlns="http://www.w3.org/2000/svg">
<path d="M9.32452 18.0215C8.70929 18.0215 8.12921 17.8105 7.58429 17.3887C7.03937 16.9727 6.56183 16.3867 6.15167 15.6309C5.74152 14.875 5.41925 13.9902 5.18488 12.9766C4.9505 11.9629 4.83331 10.8613 4.83331 9.67188C4.83331 8.48242 4.9505 7.37793 5.18488 6.3584C5.41925 5.33887 5.74152 4.45117 6.15167 3.69531C6.56183 2.93945 7.03644 2.35352 7.5755 1.9375C8.12042 1.51562 8.70343 1.30469 9.32452 1.30469C9.95148 1.30469 10.5345 1.51562 11.0735 1.9375C11.6185 2.35352 12.096 2.93945 12.5062 3.69531C12.9222 4.45117 13.2444 5.33887 13.473 6.3584C13.7015 7.37793 13.8157 8.48242 13.8157 9.67188C13.8157 10.8613 13.6985 11.9629 13.4642 12.9766C13.2357 13.9902 12.9134 14.875 12.4974 15.6309C12.0872 16.3867 11.6097 16.9727 11.0648 17.3887C10.5257 17.8105 9.94562 18.0215 9.32452 18.0215ZM9.32452 2.44727C8.90265 2.44727 8.49542 2.64062 8.10284 3.02734C7.71613 3.41406 7.37042 3.94434 7.06573 4.61816C6.76691 5.28613 6.5296 6.05664 6.35382 6.92969C6.17804 7.79688 6.09015 8.71094 6.09015 9.67188C6.09015 10.627 6.17804 11.5352 6.35382 12.3965C6.5296 13.2578 6.76691 14.0254 7.06573 14.6992C7.37042 15.3672 7.71613 15.8945 8.10284 16.2812C8.49542 16.6738 8.90265 16.8701 9.32452 16.8701C9.7464 16.8701 10.1507 16.6738 10.5374 16.2812C10.93 15.8945 11.2786 15.3643 11.5833 14.6904C11.888 14.0166 12.1282 13.249 12.304 12.3877C12.4798 11.5264 12.5677 10.6211 12.5677 9.67188C12.5677 8.71094 12.4798 7.79688 12.304 6.92969C12.1282 6.05664 11.888 5.28613 11.5833 4.61816C11.2786 3.94434 10.93 3.41406 10.5374 3.02734C10.1507 2.64062 9.7464 2.44727 9.32452 2.44727ZM8.71808 1.41895H9.94855V17.8545H8.71808V1.41895ZM9.32452 12.7393C10.2444 12.7393 11.1146 12.8154 11.9349 12.9678C12.7552 13.1143 13.4905 13.3252 14.1409 13.6006C14.7972 13.876 15.3275 14.2012 15.7318 14.5762L14.7913 15.3496C14.4105 15.0566 13.9446 14.8076 13.3939 14.6025C12.8489 14.3916 12.2337 14.2334 11.5482 14.1279C10.8626 14.0166 10.1214 13.9609 9.32452 13.9609C8.53351 13.9609 7.7923 14.0166 7.10089 14.1279C6.41534 14.2334 5.79718 14.3916 5.2464 14.6025C4.70148 14.8076 4.24152 15.0566 3.86652 15.3496L2.92609 14.5762C3.33038 14.2012 3.85773 13.876 4.50812 13.6006C5.15851 13.3252 5.89386 13.1143 6.71417 12.9678C7.54034 12.8154 8.41046 12.7393 9.32452 12.7393ZM17.3841 9.03906V10.2607H1.27374V9.03906H17.3841ZM9.32452 6.61328C8.41046 6.61328 7.54034 6.54004 6.71417 6.39355C5.89386 6.24121 5.15851 6.02734 4.50812 5.75195C3.85773 5.47656 3.33038 5.15137 2.92609 4.77637L3.86652 4.00293C4.24738 4.2959 4.71027 4.54785 5.25519 4.75879C5.80011 4.96387 6.41534 5.12207 7.10089 5.2334C7.7923 5.33887 8.53351 5.3916 9.32452 5.3916C10.1214 5.3916 10.8626 5.33887 11.5482 5.2334C12.2337 5.12207 12.8489 4.96387 13.3939 4.75879C13.9446 4.54785 14.4105 4.2959 14.7913 4.00293L15.7318 4.77637C15.3275 5.15137 14.7972 5.47656 14.1409 5.75195C13.4905 6.02734 12.7552 6.24121 11.9349 6.39355C11.1146 6.54004 10.2444 6.61328 9.32452 6.61328ZM9.32452 18.7334C8.08234 18.7334 6.91339 18.4961 5.81769 18.0215C4.72198 17.5527 3.75519 16.8994 2.9173 16.0615C2.08527 15.2236 1.43195 14.2568 0.957336 13.1611C0.482727 12.0654 0.245422 10.8965 0.245422 9.6543C0.245422 8.41211 0.482727 7.24316 0.957336 6.14746C1.43195 5.05176 2.08527 4.08789 2.9173 3.25586C3.75519 2.41797 4.71906 1.76172 5.8089 1.28711C6.9046 0.8125 8.07355 0.575195 9.31573 0.575195C10.5638 0.575195 11.7357 0.8125 12.8314 1.28711C13.9271 1.76172 14.8939 2.41797 15.7318 3.25586C16.5696 4.08789 17.2259 5.05176 17.7005 6.14746C18.1751 7.24316 18.4124 8.41211 18.4124 9.6543C18.4124 10.8965 18.1751 12.0654 17.7005 13.1611C17.2259 14.2568 16.5696 15.2236 15.7318 16.0615C14.8939 16.8994 13.9271 17.5527 12.8314 18.0215C11.7357 18.4961 10.5667 18.7334 9.32452 18.7334ZM9.32452 17.3271C10.3734 17.3271 11.3607 17.125 12.2864 16.7207C13.2122 16.3223 14.0267 15.7715 14.7298 15.0684C15.4388 14.3594 15.9925 13.542 16.3909 12.6162C16.7952 11.6904 16.9974 10.7031 16.9974 9.6543C16.9974 8.60547 16.7952 7.61816 16.3909 6.69238C15.9925 5.7666 15.4388 4.95215 14.7298 4.24902C14.0208 3.5459 13.2034 2.99512 12.2776 2.59668C11.3519 2.19238 10.3646 1.99023 9.31573 1.99023C8.27277 1.99023 7.28839 2.19238 6.36261 2.59668C5.43683 2.99512 4.62238 3.5459 3.91925 4.24902C3.21613 4.95215 2.66241 5.7666 2.25812 6.69238C1.85968 7.61816 1.66046 8.60547 1.66046 9.6543C1.66046 10.7031 1.85968 11.6904 2.25812 12.6162C2.66241 13.542 3.21613 14.3594 3.91925 15.0684C4.62238 15.7715 5.43683 16.3223 6.36261 16.7207C7.28839 17.125 8.2757 17.3271 9.32452 17.3271Z" fill="#999999"/>
</svg>
