<svg width="14" height="4" viewBox="0 0 14 4" fill="none" xmlns="http://www.w3.org/2000/svg">
<path d="M1.55811 3.09619C1.29932 3.09619 1.06494 3.03516 0.85498 2.91309C0.64502 2.78613 0.476562 2.61768 0.349609 2.40771C0.227539 2.19775 0.166504 1.96582 0.166504 1.71191C0.166504 1.45312 0.227539 1.21875 0.349609 1.00879C0.476562 0.798828 0.64502 0.632812 0.85498 0.510742C1.06494 0.383789 1.29932 0.320312 1.55811 0.320312C1.81201 0.320312 2.04395 0.383789 2.25391 0.510742C2.46387 0.632812 2.62988 0.798828 2.75195 1.00879C2.87891 1.21875 2.94238 1.45312 2.94238 1.71191C2.94238 1.96582 2.87891 2.19775 2.75195 2.40771C2.62988 2.61768 2.46387 2.78613 2.25391 2.91309C2.04395 3.03516 1.81201 3.09619 1.55811 3.09619ZM7 3.09619C6.74121 3.09619 6.50684 3.03516 6.29688 2.91309C6.08691 2.78613 5.91846 2.61768 5.7915 2.40771C5.66943 2.19775 5.6084 1.96582 5.6084 1.71191C5.6084 1.45312 5.66943 1.21875 5.7915 1.00879C5.91846 0.798828 6.08691 0.632812 6.29688 0.510742C6.50684 0.383789 6.74121 0.320312 7 0.320312C7.25391 0.320312 7.48584 0.383789 7.6958 0.510742C7.90576 0.632812 8.07178 0.798828 8.19385 1.00879C8.3208 1.21875 8.38428 1.45312 8.38428 1.71191C8.38428 1.96582 8.3208 2.19775 8.19385 2.40771C8.07178 2.61768 7.90576 2.78613 7.6958 2.91309C7.48584 3.03516 7.25391 3.09619 7 3.09619ZM12.4419 3.09619C12.1831 3.09619 11.9487 3.03516 11.7388 2.91309C11.5288 2.78613 11.3604 2.61768 11.2334 2.40771C11.1113 2.19775 11.0503 1.96582 11.0503 1.71191C11.0503 1.45312 11.1113 1.21875 11.2334 1.00879C11.3604 0.798828 11.5288 0.632812 11.7388 0.510742C11.9487 0.383789 12.1831 0.320312 12.4419 0.320312C12.6958 0.320312 12.9277 0.383789 13.1377 0.510742C13.3477 0.632812 13.5161 0.798828 13.6431 1.00879C13.77 1.21875 13.8335 1.45312 13.8335 1.71191C13.8335 1.96582 13.77 2.19775 13.6431 2.40771C13.5161 2.61768 13.3477 2.78613 13.1377 2.91309C12.9277 3.03516 12.6958 3.09619 12.4419 3.09619Z" fill="white"/>
</svg>
