<svg width="20" height="19" viewBox="0 0 20 19" fill="none" xmlns="http://www.w3.org/2000/svg">
<path d="M9.99121 18.7422C8.74902 18.7422 7.58008 18.5049 6.48438 18.0303C5.38867 17.5615 4.42188 16.9082 3.58398 16.0703C2.75195 15.2324 2.09863 14.2656 1.62402 13.1699C1.14941 12.0742 0.912109 10.9053 0.912109 9.66309C0.912109 8.4209 1.14941 7.25195 1.62402 6.15625C2.09863 5.06055 2.75195 4.09668 3.58398 3.26465C4.42188 2.42676 5.38574 1.77051 6.47559 1.2959C7.57129 0.821289 8.74023 0.583984 9.98242 0.583984C11.2305 0.583984 12.4023 0.821289 13.498 1.2959C14.5938 1.77051 15.5605 2.42676 16.3984 3.26465C17.2363 4.09668 17.8926 5.06055 18.3672 6.15625C18.8418 7.25195 19.0791 8.4209 19.0791 9.66309C19.0791 10.9053 18.8418 12.0742 18.3672 13.1699C17.8926 14.2656 17.2363 15.2324 16.3984 16.0703C15.5605 16.9082 14.5938 17.5615 13.498 18.0303C12.4023 18.5049 11.2334 18.7422 9.99121 18.7422ZM5.95703 14.2422H14.0254C14.2246 14.2422 14.374 14.1836 14.4736 14.0664C14.5732 13.9434 14.623 13.791 14.623 13.6094C14.623 13.3633 14.5293 13.0469 14.3418 12.6602C14.1543 12.2676 13.8701 11.875 13.4893 11.4824C13.1143 11.084 12.6338 10.7529 12.0479 10.4893C11.4678 10.2197 10.7822 10.085 9.99121 10.085C9.19434 10.085 8.50586 10.2197 7.92578 10.4893C7.3457 10.7529 6.86523 11.084 6.48438 11.4824C6.10938 11.875 5.82812 12.2676 5.64062 12.6602C5.45312 13.0469 5.35938 13.3633 5.35938 13.6094C5.35938 13.791 5.40918 13.9434 5.50879 14.0664C5.6084 14.1836 5.75781 14.2422 5.95703 14.2422ZM9.99121 9.36426C10.4189 9.36426 10.8057 9.25586 11.1514 9.03906C11.5029 8.81641 11.7842 8.51465 11.9951 8.13379C12.2061 7.74707 12.3115 7.31348 12.3115 6.83301C12.3115 6.38184 12.2061 5.96875 11.9951 5.59375C11.7842 5.21875 11.5029 4.91992 11.1514 4.69727C10.8057 4.46875 10.4189 4.35449 9.99121 4.35449C9.56348 4.35449 9.17383 4.46875 8.82227 4.69727C8.47656 4.91992 8.19824 5.21875 7.9873 5.59375C7.77637 5.96875 7.6709 6.38184 7.6709 6.83301C7.6709 7.31348 7.77637 7.74414 7.9873 8.125C8.19824 8.50586 8.47656 8.80762 8.82227 9.03027C9.17383 9.25293 9.56348 9.36426 9.99121 9.36426Z" fill="#999999"/>
</svg>
