<svg width="281" height="280" viewBox="0 0 281 280" fill="none" xmlns="http://www.w3.org/2000/svg">
<g filter="url(#filter0_d_1_128)">
<rect x="230.514" y="0.253525" width="45.9155" height="45.9155" rx="5" fill="white"/>
</g>
<g filter="url(#filter1_d_1_128)">
<path fill-rule="evenodd" clip-rule="evenodd" d="M241.143 13.9224L253.25 10.5845L258.369 19.7227L253.691 33.5423H241.143V13.9224Z" fill="black"/>
<path fill-rule="evenodd" clip-rule="evenodd" d="M265.353 13.9223L253.25 10.5845V33.5422H265.353V13.9223Z" fill="#292E31"/>
<path fill-rule="evenodd" clip-rule="evenodd" d="M241.143 18.0519L253.25 15.6845V18.2993L241.143 20.5296V18.0519Z" fill="#F09556"/>
<path fill-rule="evenodd" clip-rule="evenodd" d="M241.143 21.8007L241.539 21.736V24.0196L241.143 24.0767V21.8045V21.8007ZM241.881 21.6751L242.886 21.5077V23.8293L241.881 23.9701V21.6751ZM243.229 21.4506L245.661 21.0433V23.4449L243.229 23.7836V21.4544V21.4506ZM245.999 20.9862L247.004 20.8188V23.2584L245.999 23.3992V20.99V20.9862ZM247.347 20.7617L250.365 20.2555V22.7903L247.347 23.2089V20.7617ZM250.704 20.1984L251.708 20.0309V22.6038L250.704 22.7446V20.2022V20.1984ZM252.051 19.9738L253.246 19.7721V22.3868L252.051 22.5543V19.9738Z" fill="#F09556"/>
<path fill-rule="evenodd" clip-rule="evenodd" d="M265.353 18.0519L253.25 15.6845V18.2992L265.353 20.5296V18.0519Z" fill="#F6C391"/>
<path fill-rule="evenodd" clip-rule="evenodd" d="M265.353 21.8007L264.957 21.736V24.0196L265.353 24.0767V21.8045V21.8007ZM264.615 21.6751L263.61 21.5077V23.8293L264.615 23.9701V21.6751ZM263.267 21.4506L260.835 21.0433V23.4449L263.267 23.7836V21.4544V21.4506ZM260.497 20.9862L259.492 20.8188V23.2584L260.497 23.3992V20.99V20.9862ZM259.149 20.7617L256.131 20.2555V22.7903L259.149 23.2089V20.7617ZM255.792 20.1984L254.788 20.0309V22.6038L255.792 22.7446V20.2022V20.1984ZM254.445 19.9738L253.25 19.7721V22.3868L254.445 22.5543V19.9738Z" fill="#F6C391"/>
</g>
<g filter="url(#filter2_d_1_128)">
<path fill-rule="evenodd" clip-rule="evenodd" d="M241.143 13.9224L253.25 10.5845L258.369 19.7227L253.691 33.5423H241.143V13.9224Z" fill="black"/>
<path fill-rule="evenodd" clip-rule="evenodd" d="M265.353 13.9223L253.25 10.5845V33.5422H265.353V13.9223Z" fill="#292E31"/>
<path fill-rule="evenodd" clip-rule="evenodd" d="M241.143 18.0519L253.25 15.6845V18.2993L241.143 20.5296V18.0519Z" fill="#F09556"/>
<path fill-rule="evenodd" clip-rule="evenodd" d="M241.143 21.8007L241.539 21.736V24.0196L241.143 24.0767V21.8045V21.8007ZM241.881 21.6751L242.886 21.5077V23.8293L241.881 23.9701V21.6751ZM243.229 21.4506L245.661 21.0433V23.4449L243.229 23.7836V21.4544V21.4506ZM245.999 20.9862L247.004 20.8188V23.2584L245.999 23.3992V20.99V20.9862ZM247.347 20.7617L250.365 20.2555V22.7903L247.347 23.2089V20.7617ZM250.704 20.1984L251.708 20.0309V22.6038L250.704 22.7446V20.2022V20.1984ZM252.051 19.9738L253.246 19.7721V22.3868L252.051 22.5543V19.9738Z" fill="#F09556"/>
<path fill-rule="evenodd" clip-rule="evenodd" d="M265.353 18.0519L253.25 15.6845V18.2992L265.353 20.5296V18.0519Z" fill="#F6C391"/>
<path fill-rule="evenodd" clip-rule="evenodd" d="M265.353 21.8007L264.957 21.736V24.0196L265.353 24.0767V21.8045V21.8007ZM264.615 21.6751L263.61 21.5077V23.8293L264.615 23.9701V21.6751ZM263.267 21.4506L260.835 21.0433V23.4449L263.267 23.7836V21.4544V21.4506ZM260.497 20.9862L259.492 20.8188V23.2584L260.497 23.3992V20.99V20.9862ZM259.149 20.7617L256.131 20.2555V22.7903L259.149 23.2089V20.7617ZM255.792 20.1984L254.788 20.0309V22.6038L255.792 22.7446V20.2022V20.1984ZM254.445 19.9738L253.25 19.7721V22.3868L254.445 22.5543V19.9738Z" fill="#F6C391"/>
</g>
<path fill-rule="evenodd" clip-rule="evenodd" d="M240.061 39L134.211 173.558L0 279.97L105.85 145.411L105.865 145.426L240.061 39Z" fill="url(#paint0_linear_1_128)"/>
<defs>
<filter id="filter0_d_1_128" x="228.514" y="0.253525" width="51.9155" height="51.9155" filterUnits="userSpaceOnUse" color-interpolation-filters="sRGB">
<feFlood flood-opacity="0" result="BackgroundImageFix"/>
<feColorMatrix in="SourceAlpha" type="matrix" values="0 0 0 0 0 0 0 0 0 0 0 0 0 0 0 0 0 0 127 0" result="hardAlpha"/>
<feOffset dx="1" dy="3"/>
<feGaussianBlur stdDeviation="1.5"/>
<feComposite in2="hardAlpha" operator="out"/>
<feColorMatrix type="matrix" values="0 0 0 0 0 0 0 0 0 0 0 0 0 0 0 0 0 0 0.15 0"/>
<feBlend mode="normal" in2="BackgroundImageFix" result="effect1_dropShadow_1_128"/>
<feBlend mode="normal" in="SourceGraphic" in2="effect1_dropShadow_1_128" result="shape"/>
</filter>
<filter id="filter1_d_1_128" x="240.143" y="10.5845" width="26.2101" height="24.9578" filterUnits="userSpaceOnUse" color-interpolation-filters="sRGB">
<feFlood flood-opacity="0" result="BackgroundImageFix"/>
<feColorMatrix in="SourceAlpha" type="matrix" values="0 0 0 0 0 0 0 0 0 0 0 0 0 0 0 0 0 0 127 0" result="hardAlpha"/>
<feOffset dy="1"/>
<feGaussianBlur stdDeviation="0.5"/>
<feComposite in2="hardAlpha" operator="out"/>
<feColorMatrix type="matrix" values="0 0 0 0 0 0 0 0 0 0 0 0 0 0 0 0 0 0 0.25 0"/>
<feBlend mode="normal" in2="BackgroundImageFix" result="effect1_dropShadow_1_128"/>
<feBlend mode="normal" in="SourceGraphic" in2="effect1_dropShadow_1_128" result="shape"/>
</filter>
<filter id="filter2_d_1_128" x="240.143" y="10.5845" width="26.2101" height="24.9578" filterUnits="userSpaceOnUse" color-interpolation-filters="sRGB">
<feFlood flood-opacity="0" result="BackgroundImageFix"/>
<feColorMatrix in="SourceAlpha" type="matrix" values="0 0 0 0 0 0 0 0 0 0 0 0 0 0 0 0 0 0 127 0" result="hardAlpha"/>
<feOffset dy="1"/>
<feGaussianBlur stdDeviation="0.5"/>
<feComposite in2="hardAlpha" operator="out"/>
<feColorMatrix type="matrix" values="0 0 0 0 0 0 0 0 0 0 0 0 0 0 0 0 0 0 0.25 0"/>
<feBlend mode="normal" in2="BackgroundImageFix" result="effect1_dropShadow_1_128"/>
<feBlend mode="normal" in="SourceGraphic" in2="effect1_dropShadow_1_128" result="shape"/>
</filter>
<linearGradient id="paint0_linear_1_128" x1="120.03" y1="39" x2="120.03" y2="279.97" gradientUnits="userSpaceOnUse">
<stop stop-color="#F09556"/>
<stop offset="1" stop-color="#611452"/>
</linearGradient>
</defs>
</svg>
