<svg width="26" height="30" viewBox="0 0 26 30" fill="none" xmlns="http://www.w3.org/2000/svg">
<g filter="url(#filter0_d_392_6866)">
<path d="M13.3812 2.44482C6.97473 2.44482 1.76318 7.63204 1.76318 14.0086C1.76318 20.3852 6.97473 25.5724 13.3812 25.5724C19.7877 25.5724 24.9993 20.3852 24.9993 14.0086C24.9993 7.63204 19.7877 2.44482 13.3812 2.44482ZM23.9036 14.0086C23.9036 19.7831 19.1827 24.4819 13.3812 24.4819C7.5797 24.4819 2.85883 19.7831 2.85883 14.0086C2.85883 8.23419 7.5797 3.53536 13.3812 3.53536C19.1827 3.53536 23.9036 8.23305 23.9036 14.0086Z" fill="white"/>
<path d="M11.8191 1.68522C11.8237 1.73118 11.848 1.77255 11.8838 1.80013C11.9195 1.82886 11.9657 1.8415 12.0108 1.8369C12.9159 1.73348 13.8372 1.73348 14.7493 1.8369C14.7562 1.8369 14.7632 1.8369 14.7689 1.8369C14.8555 1.8369 14.9306 1.77255 14.941 1.68407L15.0275 0.942872C15.0333 0.896907 15.0195 0.85209 14.9918 0.815318C14.9629 0.779694 14.9213 0.756711 14.8763 0.750966C13.8857 0.63835 12.8801 0.63835 11.8872 0.750966C11.841 0.755562 11.7995 0.779694 11.7718 0.815318C11.7441 0.850941 11.7302 0.896907 11.7348 0.941723L11.8203 1.68292L11.8191 1.68522Z" fill="white"/>
<path d="M14.9432 26.3309C14.9386 26.2849 14.9144 26.2435 14.8786 26.216C14.8428 26.1884 14.7966 26.1735 14.7516 26.1792C13.8476 26.2826 12.9251 26.2826 12.0131 26.1792C11.9184 26.1689 11.8318 26.2367 11.8214 26.3309L11.7348 27.0721C11.729 27.118 11.7429 27.1629 11.7718 27.1996C11.8006 27.2364 11.8422 27.2582 11.8872 27.264C12.3837 27.3203 12.887 27.349 13.3835 27.349C13.8799 27.349 14.3845 27.3203 14.8763 27.2651C14.971 27.2548 15.0391 27.1686 15.0287 27.0744L14.9432 26.3332V26.3309Z" fill="white"/>
<path d="M13.7552 4.60645H13.0059C12.9103 4.60645 12.8328 4.68362 12.8328 4.77882V6.64387C12.8328 6.73907 12.9103 6.81624 13.0059 6.81624H13.7552C13.8509 6.81624 13.9284 6.73907 13.9284 6.64387V4.77882C13.9284 4.68362 13.8509 4.60645 13.7552 4.60645Z" fill="white"/>
<path d="M13.7552 21.2009H13.0059C12.9103 21.2009 12.8328 21.2781 12.8328 21.3733V23.2372C12.8328 23.3324 12.9103 23.4096 13.0059 23.4096H13.7552C13.8509 23.4096 13.9284 23.3324 13.9284 23.2372V21.3733C13.9284 21.2781 13.8509 21.2009 13.7552 21.2009Z" fill="white"/>
<path d="M19.7946 7.09772C19.7265 7.02993 19.6168 7.02993 19.5498 7.09772L18.2256 8.41579C18.1932 8.44797 18.1748 8.49163 18.1748 8.5376C18.1748 8.58356 18.1932 8.62723 18.2256 8.65941L18.7555 9.18686C18.789 9.22019 18.834 9.23742 18.8779 9.23742C18.9218 9.23742 18.9668 9.22019 19.0003 9.18686L20.3245 7.8688C20.3568 7.83662 20.3753 7.79295 20.3753 7.74699C20.3753 7.70102 20.3568 7.65736 20.3245 7.62518L19.7946 7.09772Z" fill="white"/>
<path d="M8.00693 18.8303C7.97461 18.7982 7.93074 18.7798 7.88455 18.7798C7.83837 18.7798 7.7945 18.7982 7.76217 18.8303L6.43793 20.1484C6.36981 20.2162 6.36981 20.3254 6.43793 20.392L6.96786 20.9195C7.00018 20.9517 7.04406 20.97 7.09024 20.97C7.13642 20.97 7.18029 20.9517 7.21262 20.9195L8.53686 19.6014C8.60498 19.5336 8.60498 19.4245 8.53686 19.3578L8.00693 18.8303Z" fill="white"/>
<path d="M22.6545 13.4629H20.7807C20.685 13.4629 20.6075 13.5401 20.6075 13.6353V14.3811C20.6075 14.4763 20.685 14.5534 20.7807 14.5534H22.6545C22.7501 14.5534 22.8276 14.4763 22.8276 14.3811V13.6353C22.8276 13.5401 22.7501 13.4629 22.6545 13.4629Z" fill="white"/>
<path d="M5.9818 13.4629H4.10915C4.01351 13.4629 3.93597 13.5401 3.93597 13.6353V14.3811C3.93597 14.4763 4.01351 14.5534 4.10915 14.5534H5.9818C6.07745 14.5534 6.15498 14.4763 6.15498 14.3811V13.6353C6.15498 13.5401 6.07745 13.4629 5.9818 13.4629Z" fill="white"/>
<path d="M19.0003 18.8305C18.9357 18.7661 18.8202 18.7661 18.7556 18.8305L18.2256 19.3579C18.1575 19.4257 18.1575 19.5349 18.2256 19.6016L19.5499 20.9196C19.5822 20.9518 19.6261 20.9702 19.6723 20.9702C19.7185 20.9702 19.7623 20.9518 19.7947 20.9196L20.3246 20.3922C20.3927 20.3244 20.3927 20.2152 20.3246 20.1486L19.0003 18.8305Z" fill="white"/>
<path d="M7.21262 7.0967C7.18029 7.06453 7.13642 7.04614 7.09024 7.04614C7.04406 7.04614 7.00018 7.06453 6.96786 7.0967L6.43793 7.62416C6.36981 7.69196 6.36981 7.80113 6.43793 7.86778L7.76217 9.18699C7.7945 9.21917 7.83837 9.23755 7.88455 9.23755C7.93074 9.23755 7.97461 9.21917 8.00693 9.18699L8.53686 8.65954C8.60498 8.59174 8.60498 8.48257 8.53686 8.41592L7.21262 7.0967Z" fill="white"/>
<path d="M15.4478 12.0484C15.4305 12.0035 15.3947 11.9691 15.3509 11.9518L9.04251 9.46624C8.97786 9.44096 8.90512 9.4559 8.85663 9.50416C8.80814 9.55243 8.79313 9.62597 8.81853 9.68918L11.3158 15.9681C11.3331 16.0129 11.3689 16.0474 11.4128 16.0646L17.7211 18.5502C17.7419 18.5582 17.7638 18.5628 17.7846 18.5628C17.8296 18.5628 17.8735 18.5456 17.907 18.5123C17.9555 18.464 17.9705 18.3905 17.9451 18.3273L15.4478 12.0484ZM14.5762 12.8183L16.1417 16.7564L12.1851 15.1982L10.6196 11.2601L14.5762 12.8183Z" fill="white"/>
<path d="M13.3812 14.8509C13.6075 14.8509 13.8211 14.7636 13.9816 14.6038C14.142 14.4441 14.2298 14.2327 14.2298 14.0063C14.2298 13.7799 14.142 13.5685 13.9816 13.4087C13.6502 13.0789 13.1122 13.0789 12.7808 13.4087C12.4507 13.7385 12.4507 14.274 12.7808 14.6027C12.9413 14.7624 13.1538 14.8498 13.3812 14.8498V14.8509Z" fill="white"/>
</g>
<defs>
<filter id="filter0_d_392_6866" x="0.763184" y="0.666504" width="25.2361" height="28.6826" filterUnits="userSpaceOnUse" color-interpolation-filters="sRGB">
<feFlood flood-opacity="0" result="BackgroundImageFix"/>
<feColorMatrix in="SourceAlpha" type="matrix" values="0 0 0 0 0 0 0 0 0 0 0 0 0 0 0 0 0 0 127 0" result="hardAlpha"/>
<feOffset dy="1"/>
<feGaussianBlur stdDeviation="0.5"/>
<feComposite in2="hardAlpha" operator="out"/>
<feColorMatrix type="matrix" values="0 0 0 0 0 0 0 0 0 0 0 0 0 0 0 0 0 0 0.25 0"/>
<feBlend mode="normal" in2="BackgroundImageFix" result="effect1_dropShadow_392_6866"/>
<feBlend mode="normal" in="SourceGraphic" in2="effect1_dropShadow_392_6866" result="shape"/>
</filter>
</defs>
</svg>
