<svg width="13" height="20" viewBox="0 0 13 20" fill="none" xmlns="http://www.w3.org/2000/svg">
<path d="M1.16565 19.3047C0.814087 19.3047 0.535767 19.1904 0.330688 18.9619C0.13147 18.7393 0.0318604 18.4316 0.0318604 18.0391V2.71094C0.0318604 1.83789 0.254517 1.17578 0.699829 0.724609C1.14514 0.273438 1.80139 0.0478516 2.66858 0.0478516H9.65588C10.5231 0.0478516 11.1793 0.273438 11.6246 0.724609C12.0699 1.17578 12.2926 1.83789 12.2926 2.71094V18.0391C12.2926 18.4316 12.1901 18.7393 11.985 18.9619C11.7858 19.1904 11.5133 19.3047 11.1676 19.3047C10.9274 19.3047 10.7076 19.2314 10.5084 19.085C10.3092 18.9443 10.0192 18.6895 9.63831 18.3203L6.23694 14.9629C6.19006 14.9102 6.14026 14.9102 6.08752 14.9629L2.69495 18.3203C2.31409 18.6895 2.02112 18.9443 1.81604 19.085C1.61682 19.2314 1.40002 19.3047 1.16565 19.3047Z" fill="#999999"/>
</svg>
