<svg width="10" height="17" viewBox="0 0 10 17" fill="none" xmlns="http://www.w3.org/2000/svg">
<path d="M0.839844 16.5562C0.595703 16.5562 0.405273 16.478 0.268555 16.3218C0.131836 16.1655 0.0634766 15.9458 0.0634766 15.6626V2.94775C0.0634766 2.24951 0.236816 1.72461 0.583496 1.37305C0.930176 1.02148 1.44775 0.845703 2.13623 0.845703H7.86377C8.55225 0.845703 9.06982 1.02148 9.4165 1.37305C9.76318 1.72461 9.93652 2.24951 9.93652 2.94775V15.6626C9.93652 15.9458 9.86816 16.1655 9.73145 16.3218C9.59473 16.478 9.4043 16.5562 9.16016 16.5562C8.97949 16.5562 8.81104 16.4951 8.65479 16.373C8.50342 16.251 8.26172 16.0312 7.92969 15.7139L5.06592 12.894C5.02197 12.8452 4.97803 12.8452 4.93408 12.894L2.07031 15.7139C1.73828 16.0361 1.49414 16.2559 1.33789 16.373C1.18164 16.4951 1.01562 16.5562 0.839844 16.5562ZM1.44043 14.5786L4.61182 11.5024C4.729 11.3901 4.8584 11.334 5 11.334C5.1416 11.334 5.271 11.3901 5.38818 11.5024L8.55957 14.5786C8.61328 14.6274 8.66211 14.6445 8.70605 14.6299C8.75488 14.6201 8.7793 14.5786 8.7793 14.5054V2.9624C8.7793 2.64502 8.69629 2.40576 8.53027 2.24463C8.36914 2.0835 8.12988 2.00293 7.8125 2.00293H2.19482C1.87256 2.00293 1.62842 2.0835 1.4624 2.24463C1.30127 2.40576 1.2207 2.64502 1.2207 2.9624V14.5054C1.2207 14.5786 1.24268 14.6201 1.28662 14.6299C1.33545 14.6445 1.38672 14.6274 1.44043 14.5786Z" fill="white"/>
</svg>
